<?xml version="1.0" encoding="utf-8"?>
<!-- Generator: Adobe Illustrator 23.0.2, SVG Export Plug-In . SVG Version: 6.00 Build 0)  -->
<svg version="1.1" id="Capa_1" xmlns="http://www.w3.org/2000/svg" xmlns:xlink="http://www.w3.org/1999/xlink" x="0px" y="0px"
	 viewBox="0 0 30 30" enable-background="new 0 0 30 30" xml:space="preserve">
<g>
	<g>
		<polygon fill="#010002" points="24.3,16.1 23.6,15.4 22.4,16.6 22.4,19.2 24.3,21.1 		"/>
		<polygon fill="#010002" points="24.3,8.9 22.4,10.8 22.4,13.4 23.6,14.7 24.3,13.9 		"/>
		<path fill="#010002" d="M5.3,7.3L3.5,5.4c-2,2.4-3.3,5.5-3.4,8.8h2.6C2.8,11.6,3.8,9.2,5.3,7.3z"/>
		<path fill="#010002" d="M2.6,15.8H0c0.2,3.7,1.7,7,4.1,9.5l1.8-1.8C4,21.4,2.8,18.7,2.6,15.8z"/>
		<polygon fill="#010002" points="22,10.5 24,8.5 16.5,8.5 18.4,10.5 		"/>
		<polygon fill="#010002" points="16.1,13.9 16.9,14.6 18.1,13.4 18.1,10.8 16.1,8.9 		"/>
		<polygon fill="#010002" points="22,19.5 18.4,19.5 16.5,21.5 24,21.5 		"/>
		<path fill="#010002" d="M5.2,26.3c2.5,2.1,5.6,3.5,9.1,3.7v-2.6C11.5,27.3,9,26.2,7,24.5L5.2,26.3z"/>
		<polygon fill="#010002" points="16.1,21.1 18.1,19.2 18.1,16.6 16.9,15.4 16.1,16.1 		"/>
		<polygon fill="#010002" points="5.8,13.9 6.5,14.6 7.7,13.4 7.7,10.8 5.8,8.9 		"/>
		<polygon fill="#010002" points="8.1,10.5 11.7,10.5 13.6,8.5 6.2,8.5 		"/>
		<polygon fill="#010002" points="5.8,16.1 5.8,21.1 7.7,19.2 7.7,16.6 6.5,15.4 		"/>
		<path fill="#010002" d="M6.3,6.1c2.1-2,4.9-3.4,8-3.5V0C10.5,0.2,7,1.8,4.5,4.3L6.3,6.1z"/>
		<polygon fill="#010002" points="14,16.1 13.3,15.4 12.1,16.6 12.1,19.2 14,21.1 		"/>
		<polygon fill="#010002" points="11.9,16 12.9,15 11.9,14 7.9,14 6.9,15 7.9,16 		"/>
		<polygon fill="#010002" points="11.7,19.5 8.1,19.5 6.2,21.5 13.6,21.5 		"/>
		<path fill="#010002" d="M25.5,4.3c-2.5-2.5-6-4.1-9.8-4.3v2.6c3.1,0.2,5.9,1.5,8,3.5L25.5,4.3z"/>
		<path fill="#010002" d="M27.4,14.2H30c-0.2-3.4-1.4-6.4-3.4-8.8l-1.8,1.8C26.3,9.2,27.2,11.6,27.4,14.2z"/>
		<path fill="#010002" d="M24.1,23.5l1.8,1.8c2.4-2.5,3.9-5.8,4.1-9.5h-2.6C27.2,18.7,26,21.4,24.1,23.5z"/>
		<path fill="#010002" d="M15.7,27.4V30c3.5-0.2,6.6-1.5,9.1-3.7L23,24.5C21,26.2,18.5,27.3,15.7,27.4z"/>
	</g>
</g>
</svg>
