<svg xmlns="http://www.w3.org/2000/svg" width="21.594" height="13.75" viewBox="0 0 21.594 13.75">
  <metadata><?xpacket begin="﻿" id="W5M0MpCehiHzreSzNTczkc9d"?>
<x:xmpmeta xmlns:x="adobe:ns:meta/" x:xmptk="Adobe XMP Core 5.6-c142 79.160924, 2017/07/13-01:06:39        ">
   <rdf:RDF xmlns:rdf="http://www.w3.org/1999/02/22-rdf-syntax-ns#">
      <rdf:Description rdf:about=""/>
   </rdf:RDF>
</x:xmpmeta>
                                                                                                    
                                                                                                    
                                                                                                    
                                                                                                    
                                                                                                    
                                                                                                    
                                                                                                    
                                                                                                    
                                                                                                    
                                                                                                    
                                                                                                    
                                                                                                    
                                                                                                    
                                                                                                    
                                                                                                    
                                                                                                    
                                                                                                    
                                                                                                    
                                                                                                    
                                                                                                    
                           
<?xpacket end="w"?></metadata>
<defs>
    <style>
      .cls-1 {
        fill: #979b9e;
        fill-rule: evenodd;
        opacity: 0.6;
      }
    </style>
  </defs>
  <path class="cls-1" d="M483.52,389.328a6.774,6.774,0,0,1-7.811,2.076,6.868,6.868,0,0,1,2.488-13.266,6.955,6.955,0,0,1,4.586,1.7,24.49,24.49,0,0,1-1.741,1.8,4.528,4.528,0,0,0-5.339-.141,4.395,4.395,0,0,0-.187,6.851c2.088,1.895,6.034.954,6.611-1.947-1.308-.02-2.619,0-3.927-0.043,0-.78-0.006-1.56,0-2.34,2.186-.006,4.373-0.01,6.562.007A7.864,7.864,0,0,1,483.52,389.328Zm9.427-3.359-1.96.016c-0.007.656-.01,1.308-0.013,1.96H489.02c-0.006-.652-0.006-1.3-0.013-1.957l-1.96-.019v-1.951c0.652-.006,1.3-0.009,1.96-0.013,0-.655.01-1.307,0.017-1.96h1.95c0,0.653.006,1.308,0.013,1.96,0.652,0.007,1.308.007,1.96,0.013v1.951Z" transform="translate(-471.344 -378.125)"/>
</svg>
