<?xml version="1.0" encoding="utf-8"?>
<!-- Generator: Adobe Illustrator 23.0.2, SVG Export Plug-In . SVG Version: 6.00 Build 0)  -->
<svg version="1.1" id="Capa_1" xmlns="http://www.w3.org/2000/svg" xmlns:xlink="http://www.w3.org/1999/xlink" x="0px" y="0px"
	 viewBox="0 0 512 512" enable-background="new 0 0 512 512" xml:space="preserve">
<g id="XMLID_858_">
	<g id="XMLID_207_">
		<path id="XMLID_652_" d="M455.7,345.5c4-6.5,6.4-14.1,6.4-22.3v-7.8c0-23.2-18.9-42.1-42.1-42.1c-23.2,0-42.1,18.9-42.1,42.1v7.8
			c0,8.2,2.3,15.8,6.4,22.3c-19.3,1.4-36.2,11.9-46.3,27.2c-10.1-15.3-27-25.8-46.3-27.2c4-6.5,6.4-14.1,6.4-22.3v-7.8
			c0-23.2-18.9-42.1-42.1-42.1s-42.1,18.9-42.1,42.1v7.8c0,8.2,2.3,15.8,6.4,22.3c-19.3,1.4-36.2,11.9-46.3,27.2
			c-10.1-15.3-27-25.8-46.3-27.2c4-6.5,6.4-14.1,6.4-22.3v-7.8c0-23.2-18.9-42.1-42.1-42.1S50,292.2,50,315.4v7.8
			c0,8.2,2.3,15.8,6.4,22.3C24.9,347.7,0.1,374,0.1,405.9v42c0,5.5,4.5,10,10,10h201c5.5,0,10-4.5,10-10s-4.5-10-10-10h-27v-32
			c0-21.6,16.9-39.3,38.1-40.6v5.9c0,18.7,15.3,34,34,34c18.7,0,34-15.3,34-34v-5.9c21.1,1.4,37.9,19.1,37.9,40.5v32h-27
			c-5.5,0-10,4.5-10,10s4.5,10,10,10h201c5.5,0,10-4.5,10-10v-42C512,374,487.1,347.7,455.7,345.5z M78.1,365.3h28v6
			c0,7.7-6.3,14-14,14s-14-6.3-14-14V365.3z M70,315.4c0-12.2,9.9-22.1,22.1-22.1s22.1,9.9,22.1,22.1v7.8c0,12.2-9.9,22.1-22.1,22.1
			S70,335.4,70,323.2V315.4z M20.1,405.9c0-21.5,16.8-39.2,38-40.6v5.9c0,18.7,15.3,34,34,34s34-15.3,34-34v-5.9
			c21.2,1.4,38,19,38,40.6v32h-144V405.9z M233.9,315.4c0-12.2,9.9-22.1,22.1-22.1c12.2,0,22.1,9.9,22.1,22.1v7.8
			c0,12.2-9.9,22.1-22.1,22.1s-22.1-9.9-22.1-22.1V315.4z M256.2,385.3c-7.7,0-14-6.3-14-14v-6h28v6
			C270.2,379,263.9,385.3,256.2,385.3z M406.3,365.3h28v6c0,7.7-6.3,14-14,14c-7.7,0-14-6.3-14-14V365.3z M397.9,315.4
			c0-12.2,9.9-22.1,22.1-22.1s22.1,9.9,22.1,22.1v7.8c0,12.2-9.9,22.1-22.1,22.1s-22.1-9.9-22.1-22.1V315.4z M492,438H348v-32
			c0-21.6,16.9-39.3,38.2-40.6v5.9c0,18.7,15.3,34,34,34c18.7,0,34-15.3,34-34v-5.9c21.1,1.5,37.7,19.1,37.7,40.5V438z"/>
		<path id="XMLID_668_" d="M10,238.7h491.9c5.5,0,10-4.5,10-10v-42c0-32-24.9-58.2-56.3-60.5c4-6.5,6.4-14.1,6.4-22.3v-7.8
			c0-23.2-18.9-42.1-42.1-42.1c-23.2,0-42.1,18.9-42.1,42.1v7.8c0,8.2,2.3,15.8,6.4,22.3c-19.3,1.4-36.2,11.9-46.3,27.2
			c-10.1-15.3-27-25.8-46.3-27.2c4-6.5,6.4-14.1,6.4-22.3v-7.8c0-23.2-18.9-42.1-42.1-42.1s-42.1,18.9-42.1,42.1v7.8
			c0,8.2,2.3,15.8,6.4,22.3c-19.3,1.4-36.2,11.9-46.3,27.2c-10.1-15.3-27-25.8-46.3-27.2c4-6.5,6.4-14.1,6.4-22.3v-7.8
			C134.1,72.9,115.2,54,92,54S49.9,72.9,49.9,96.1v7.8c0,8.2,2.3,15.8,6.4,22.3C24.9,128.4,0,154.7,0,186.7v42
			C0,234.2,4.5,238.7,10,238.7L10,238.7z M406,146h28v6c0,7.7-6.3,14-14,14s-14-6.3-14-14V146z M397.9,96.1
			c0-12.2,9.9-22.1,22.1-22.1S442,83.9,442,96.1v7.8c0,12.2-9.9,22.1-22.1,22.1s-22.1-9.9-22.1-22.1V96.1z M386,146.1v5.9
			c0,18.7,15.3,34,34,34c18.7,0,34-15.3,34-34v-5.9c21.2,1.4,38,19,38,40.6v32H348v-32C348,165.1,364.8,147.5,386,146.1z M241.8,146
			h28v6c0,7.7-6.3,14-14,14c-7.7,0-14-6.3-14-14L241.8,146z M233.9,96.1c0-12.2,9.9-22.1,22.1-22.1c12.2,0,22.1,9.9,22.1,22.1v7.8
			c0,12.2-9.9,22.1-22.1,22.1s-22.1-9.9-22.1-22.1V96.1z M221.8,146.1v5.9c0,18.7,15.3,34,34,34s34-15.3,34-34v-5.9
			c21.2,1.3,38.1,19,38.1,40.6v32H184v-32C184,165.2,200.7,147.6,221.8,146.1L221.8,146.1z M77.7,146h28v6c0,7.7-6.3,14-14,14
			s-14-6.3-14-14V146z M69.9,96.1C69.9,83.9,79.8,74,92,74s22.1,9.9,22.1,22.1v7.8c0,12.2-9.9,22.1-22.1,22.1s-22.1-9.9-22.1-22.1
			V96.1z M20,186.7c0-21.4,16.7-39,37.7-40.5v5.9c0,18.7,15.3,34,34,34s34-15.3,34-34v-5.9c21.3,1.2,38.2,19,38.2,40.6v32H20
			L20,186.7z"/>
		<path id="XMLID_677_" d="M256,438c-2.6,0-5.2,1.1-7.1,2.9c-1.9,1.9-2.9,4.4-2.9,7.1c0,2.6,1.1,5.2,2.9,7.1
			c1.9,1.9,4.4,2.9,7.1,2.9c2.6,0,5.2-1.1,7.1-2.9c1.9-1.9,2.9-4.4,2.9-7.1c0-2.6-1.1-5.2-2.9-7.1C261.2,439,258.7,438,256,438z"/>
	</g>
</g>
</svg>
