<?xml version="1.0" encoding="utf-8"?>
<!-- Generator: Adobe Illustrator 23.0.2, SVG Export Plug-In . SVG Version: 6.00 Build 0)  -->
<svg version="1.1" id="Capa_1" xmlns="http://www.w3.org/2000/svg" xmlns:xlink="http://www.w3.org/1999/xlink" x="0px" y="0px"
	 viewBox="0 0 19.7 19.7" enable-background="new 0 0 19.7 19.7" xml:space="preserve">
<g>
	<path fill="#FFFFFF" d="M12.6,7.2L12.6,7.2l-2.4-2.8c-0.1-0.1-0.2-0.1-0.3,0L0,15.4h19.7L12.6,7.2z M1.1,14.9
		C1.7,14.2,8.1,7,9.7,5.3l-4.3,9.6H1.1z M10.4,12.9H8.9v-0.7h1.5V12.9z M11.2,8.4H9.9V7.8h1.3V8.4z M12.7,10.6h-1.4V9.9h1.4
		L12.7,10.6z M14.1,13.2v-0.7h1.4v0.7L14.1,13.2L14.1,13.2z M6.6,8.8v0.7h1V8.8H6.6z M5.4,11.2h1v-0.6h-1V11.2z M2.7,14h1v-0.6h-1
		V14z M4.5,13.1h1.2v-0.6H4.5V13.1z"/>
</g>
</svg>
