<?xml version="1.0" encoding="utf-8"?>
<!-- Generator: Adobe Illustrator 23.0.2, SVG Export Plug-In . SVG Version: 6.00 Build 0)  -->
<svg version="1.1" id="Capa_1" xmlns="http://www.w3.org/2000/svg" xmlns:xlink="http://www.w3.org/1999/xlink" x="0px" y="0px"
	 viewBox="0 0 512 512" enable-background="new 0 0 512 512" xml:space="preserve">
<path fill="#FFFFFF" d="M135.5,246.9l-6.6,33h254.3l-6.6-33H135.5z"/>
<path fill="#FFFFFF" d="M354,135.2c-3.1-15.4-17.7-25.5-33.2-23c-14.2,2.2-23.4,7.2-31.5,11.7c-9.4,5.1-16.9,9.2-33.3,9.2
	s-23.8-4-33.3-9.2c-8.2-4.5-17.5-9.5-31.9-11.7c-15.3-2.3-29.8,7.8-32.8,23.1l-16.4,81.7h228.9L354,135.2z"/>
<path fill="#FFFFFF" d="M0,370.5v29.8h512v-29.8c0-31.5-24.1-57.5-54.8-60.6H54.8C24.1,313,0,339,0,370.5L0,370.5z"/>
</svg>
