<?xml version="1.0" encoding="utf-8"?>
<!-- Generator: Adobe Illustrator 23.0.2, SVG Export Plug-In . SVG Version: 6.00 Build 0)  -->
<svg version="1.1" id="Слой_1" xmlns="http://www.w3.org/2000/svg" xmlns:xlink="http://www.w3.org/1999/xlink" x="0px" y="0px"
	 viewBox="0 0 511 511" enable-background="new 0 0 511 511" xml:space="preserve">
<path fill="#FFFFFF" d="M491.8,124.2C480,112.4,464.3,106,447.7,106c-16.6,0-32.3,6.5-44.1,18.2L193,334.8l-87.7-87.7
	c-11.8-11.8-27.4-18.3-44.1-18.3s-32.3,6.5-44.1,18.3c-24.3,24.3-24.3,63.8,0,88.1L149,467c11.8,11.8,27.4,18.2,44.1,18.2
	s32.3-6.5,44.1-18.2l254.7-254.7c11.8-11.8,18.2-27.4,18.2-44.1C510,151.6,503.5,136,491.8,124.2z"/>
<path fill="#FFFFFF" d="M88.5,185.9c12.8,4.8,24.3,12.1,34,21.8c9.7,9.7,17,21.1,21.8,34c2.2,5.9,7.9,9.9,14.2,9.9s12-3.9,14.2-9.9
	c9.7-25.8,30-46.2,55.8-55.8c5.9-2.2,9.9-7.9,9.9-14.2s-3.9-12-9.9-14.2c-12.8-4.8-24.3-12.2-34-21.9c-9.7-9.7-17-21.1-21.8-34
	c-2.2-5.9-7.9-9.9-14.2-9.9s-12,3.9-14.2,9.9c-4.8,12.9-12.2,24.3-21.9,34c-9.7,9.7-21.1,17-34,21.8c-5.9,2.2-9.9,7.9-9.9,14.3
	C78.6,178,82.5,183.7,88.5,185.9z"/>
<path fill="#FFFFFF" d="M239,107.4c9.7,3.6,18.3,9.1,25.6,16.5c7.3,7.3,12.8,15.9,16.5,25.6c2.2,5.9,7.9,9.9,14.2,9.9
	c6.3,0,12-3.9,14.2-9.9c7.3-19.5,22.6-34.8,42.1-42.1c5.9-2.2,9.9-7.9,9.9-14.2c0-6.3-3.9-12-9.9-14.2c-9.7-3.6-18.3-9.2-25.6-16.5
	c-7.3-7.3-12.8-15.9-16.5-25.6c-2.2-5.9-7.9-9.9-14.2-9.9s-12,3.9-14.2,9.9c-3.6,9.7-9.2,18.3-16.5,25.6
	c-7.3,7.3-15.9,12.8-25.6,16.5c-5.9,2.2-9.9,7.9-9.9,14.3C229.1,99.5,233.1,105.2,239,107.4z"/>
</svg>
