<?xml version="1.0" encoding="utf-8"?>
<!-- Generator: Adobe Illustrator 23.0.2, SVG Export Plug-In . SVG Version: 6.00 Build 0)  -->
<svg version="1.1" id="Capa_1" xmlns="http://www.w3.org/2000/svg" xmlns:xlink="http://www.w3.org/1999/xlink" x="0px" y="0px"
	 viewBox="0 0 292.9 292.9" enable-background="new 0 0 292.9 292.9" xml:space="preserve">
<g>
	<path d="M84.3,74.4c16.2-2.6,27.3-17.8,24.7-34.1c-1.6-10.3-8.4-18.5-17.3-22.5c1.4-1.3,3.1-2.6,5.1-3.8c0.9-0.6,1.5-1.6,1.3-2.7
		c-0.1-1.1-0.9-2-1.9-2.4c-5-1.7-10.7-0.8-15.9,1C81,8.2,81.9,6.2,83,4.3c0.6-0.9,0.5-2.1-0.1-3c-0.6-0.9-1.7-1.4-2.8-1.2
		C69.4,1.9,61.3,14.3,58.4,21.5c-0.5,1.3-0.9,2.6-1.1,3.9c-5.7,6.4-8.5,15.2-7.1,24.3C52.8,65.9,68.1,77,84.3,74.4z"/>
	<path d="M287.7,69c-4.2-3.9-10.7-3.7-14.6,0.5l-34.8,37.4c-2.9-2.1-6.3-3.5-9.9-4.1l-15.1-2.4c-3.6-0.6-7.3-0.3-10.7,0.8L181,54.9
		c-2.4-5.2-8.6-7.4-13.7-5c-5.2,2.4-7.4,8.6-5,13.7l24.9,53.8c-0.5,2,0.1-2.1-8.7,55.6l-13.6,16.7l0.4,0.5
		c3.8,4.6,5.8,10.4,5.8,16.4v49.8c0.2,0,0.3,0,0.5,0c7.1,0,12.9-5.8,12.9-12.9v-37l14.4-17.7l12.8,2.4l-3.4,21.2
		c-0.1,0.7-0.2,1.5-0.2,2.2l0.6,46.4c0.1,7.1,5.9,12.8,12.9,12.8c0.1,0,0.1,0,0.2,0c7.1-0.1,12.9-6,12.8-13.1l-0.6-45.3
		c0.8-4.9,13.8-86.7,13.9-88.6l40.2-43.3C292.1,79.4,291.9,72.9,287.7,69z"/>
	<path d="M222.4,91.8c13.5,2.1,26.2-7.1,28.4-20.6c1.2-7.6-1.2-14.9-5.9-20.3c-0.2-1.1-0.5-2.2-0.9-3.2c-2.4-5.9-9.2-16.3-18.1-17.8
		c-0.9-0.2-1.8,0.2-2.3,1c-0.5,0.8-0.5,1.7-0.1,2.5c1,1.7,1.7,3.3,2.2,4.8c-4.3-1.6-9-2.3-13.2-0.9c-0.9,0.3-1.5,1.1-1.6,2
		c-0.1,0.9,0.3,1.8,1.1,2.3c1.6,1,3,2.1,4.2,3.2c-7.4,3.3-13,10.2-14.4,18.8C199.6,76.9,208.8,89.6,222.4,91.8z"/>
	<path d="M136.9,171.9c-10.4-66.8-10.4-66.8-10.4-66.8l29.9-64.5c2.9-6.2,0.2-13.6-6-16.5c-6.2-2.9-13.6-0.2-16.5,6l-25.8,55.7
		c-4.1-1.3-8.5-1.7-12.9-1L77,87.7c-4.3,0.7-8.3,2.4-11.8,4.8L23.4,47.6c-4.7-5-12.5-5.3-17.6-0.6c-5,4.7-5.3,12.5-0.6,17.6
		l48.2,51.9c0,0,7.2,46.9,16.6,106.4l-0.7,54.3c-0.1,8.6,6.8,15.6,15.3,15.7c0.1,0,0.1,0,0.2,0c8.5,0,15.4-6.8,15.5-15.3l0.7-55.6
		c0-0.9-0.1-1.8-0.2-2.6l-4-25.5l15.4-2.9l17.3,21.3v44.4c0,8.6,6.9,15.5,15.5,15.5s15.5-7,15.5-15.5v-49.9c0-3.6-1.2-7-3.5-9.8
		L136.9,171.9z"/>
</g>
</svg>
