<?xml version="1.0" encoding="utf-8"?>
<!-- Generator: Adobe Illustrator 23.0.2, SVG Export Plug-In . SVG Version: 6.00 Build 0)  -->
<svg version="1.1" id="Capa_1" xmlns="http://www.w3.org/2000/svg" xmlns:xlink="http://www.w3.org/1999/xlink" x="0px" y="0px"
	 viewBox="0 0 512 512" enable-background="new 0 0 512 512" xml:space="preserve">
<path d="M318,512H94.3v-15c0-42.8,10.2-87.1,30.5-131.4c16-35.1,38.2-70.3,66-104.8c20-24.8,40-45.5,56.4-61.3
	c-8.9,0.7-17.9,1-27.1,1c-41,0-80.5-6.8-113.7-19.4v29.5H0V3.9h106.4v19.2c33.2-12.6,72.7-19.4,113.7-19.4c41.2,0,71.4,5.6,97.8,18
	c18.4,8.7,38.8,12.1,58.8,9.8c20.1-2.3,39-10.2,54.6-22.9L441.9,0L512,47.6L503.3,60c-0.5,0.7-47.2,68-93.2,155.7
	c-42,80-92.2,193.8-92.2,281.3L318,512L318,512z"/>
</svg>
