<svg xmlns="http://www.w3.org/2000/svg" viewBox="0 0 334.2 190.7"><path opacity=".9" fill="#FFF" d="M330.8 90.3c-1.8-1.7-10.7-7.5-19.6-12.7C255.3 44.5 228 28 208.8 15.3c-12-7.9-22.9-14.6-24.3-15-3.4-.9-7.2.3-8.4 2.5-.6 1.1-1.7 8.1-2.6 15.6-2.3 19.4-1.4 17.7-9.4 19.4-5.4 1.1-7.2 2-7.9 3.7-.9 2-1.5 2.2-5.1 1.7-2.3-.3-15.5-1-29.6-1.6s-32.1-1.5-40.3-2c-20.8-1.3-69.1-1.2-71.5.1-4.7 2.5-1.6 4.6 9.5 6.6l3.9.7-3.3 1.7c-2.7 1.3-3.3 2.2-3.1 4.4l.2 2.8-6.9-.5c-7.6-.5-10.6.6-8.8 3.4.6 1 2.9 2.2 5.1 2.9l4 1.1-4.5.7c-9.2 1.3-7.4 5.3 4 8.8 6.1 1.8 6.4 2.1 3.6 2.7-6.7 1.2-8.2 2-8.2 4s5.5 5.5 10.6 6.9c3 .8 1.6 3.4-2 4.2-6.6 1.3-4.2 6.4 4.6 9.7 3.9 1.5 4.5 2 2.6 2.1-1.4 0-3.6.8-4.8 1.6-1.9 1.3-2 1.9-1.1 4 .6 1.3 2 2.9 3.2 3.4 2.2 1 2.2 1-.4 2-4.5 1.8-5.4 3.6-3.2 6.6 2.6 3.4 7.9 5.4 19.1 7.5 5 .9 10 2 11.1 2.6 1.1.5 6.8 1.1 12.8 1.4 5.9.3 18.4 1.2 28.1 2 9.5.9 30 2.1 45.4 2.8s28.2 1.3 28.4 1.5.7 9.1 1.2 20.1c1.2 27.2 2.9 33.5 8.9 33.5 2.6 0 71.7-34.7 88.5-44.4 5.1-2.9 16.8-10.3 26.1-16.4 9.3-6.1 23-14.6 30.6-18.8 20.3-11.7 22.6-14.7 15.9-21zm-12.3 8.9c-2.6 1.5-5.2 2.7-5.9 2.7-.7 0 .3-.8 2.2-1.8 2.6-1.3 3.7-2.6 3.9-4.6.3-2.5.6-2.7 2.4-1.7 2.8 1.6 2.4 2.6-2.6 5.4zm-7.8-10.5c-1.1-.6-2-1.3-2-1.6 0-.3.9 0 2 .6s2 1.3 2 1.6c.1.3-.9 0-2-.6zm-13.5 22.5c-1.3.8-1.5.6-1.1-1.1.4-1.4 1.3-2 3.2-2 2.8-.1 2.4.4-2.1 3.1zm-2.6-26.1l-2.8-2.9 3.3 2.4c1.8 1.3 3.1 2.6 2.8 2.9-.3.3-1.8-.7-3.3-2.4zm-8.1 31.7c-.8-.8-.3-1.2 2.8-2.1l2.6-.8-2.4 1.7c-1.3 1.1-2.6 1.6-3 1.2zm-12.5-45c-1.7-.9-3.1-1.8-3.1-2.1 0-.3 1.3.2 3.1 1.1s3.1 1.8 3.1 2.1-1.4-.1-3.1-1.1zm-32.9 39c-4.6-.2-.9-.4 8.4-.4s13.1.2 8.4.4c-4.6.2-12.2.2-16.8 0zm3-13.3c-.7-.3-.2-.5 1.3-.5 1.4 0 2 .2 1.3.5s-1.9.3-2.6 0zm-17.2-1.8c-8.4-.8-12.4-1.5-10.6-1.9 3.1-.6 25.4 2 24.6 2.8-.2.2-6.6-.2-14-.9zm11.4-48.9c-.5 0-2.2-1.2-3.8-2.6l-2.9-2.6 3.8 2.2c3.9 2.2 4.7 3 2.9 3zm-11 99.7c-2.1-.2-.4-.4 3.8-.4s5.9.2 3.8.4c-2.1.2-5.4.2-7.6 0zm-21.7-64c-7.5-.4-12.8-.8-11.7-.9 1.1-.1 2.5-.6 3.1-1 .6-.5 5.5-.3 11.7.4 12.4 1.5 11.7 1.3 11.2 1.8-.3.3-6.7.1-14.3-.3zm4.4 53.8c-2.1-.2-.7-.4 3.3-.4s5.7.2 3.8.4c-1.9.2-5 .2-7.1 0zm-3.1-34.7c-1-.3-.2-.5 1.8-.5 1.9 0 2.8.2 1.8.5-1 .2-2.6.2-3.6 0zm-5 61.5c-4.5 0-4.1-.6 1-1.3 2.2-.4 3.5-.2 3.2.4-.3.5-2.2.9-4.2.9zm-6.7-108.8c-5-.5-6.3-1.1-9.6-4.5-3.6-3.7-3.7-3.9-1.5-3.9 1.3 0 5.3 1.8 9.1 4.1s7.2 4.1 7.7 4.1c.6 0 .8.2.5.5-.2.1-3.1 0-6.2-.3zm-19.4 45.5c-10-.1-10.8-.2-6.4-1 4.6-.8 17.9-.3 17.9.7 0 .2-5.2.3-11.5.3zm8.1-73.4c-1 0-1.2-1.1-.8-3.8l.5-3.8.7 3.1c1 4.5 1 4.5-.4 4.5zm-7.1 144.4c-3 .5-3.9.3-4.4-1-.9-2.3-.5-2.5 5-1.9 5.4.7 5.2 1.9-.6 2.9zm-3.6-30.9c-1 .8-1.3.6-1.3-.6s1-1.6 3.8-1.5c2.9.1 3.2.3 1.3.6-1.3.3-3 .9-3.8 1.5zM160.9 56c-2 0-35.4-3.2-37.3-3.5-3-.6 28.8.4 34 1.1 2.4.3 4.3 1 4.3 1.5-.1.5-.5.9-1 .9zm-13.2 7.1c-13.1 0-29.3-1-55.8-3.4-9.5-.9-26.2-2.1-37-2.7-27.3-1.5-29.1-3-3.8-3 13.9 0 29 .7 47.4 2.4 14.9 1.4 34.9 3.1 44.6 3.8 9.7.7 17.3 1.6 17 2.1-.2.5-5.9.8-12.4.8zm-12.1 27.1c-11.7-.9-34.8-2-51.4-2.4-29.8-.8-30-.8-16.8-1.6 19.3-1.3 76.6.9 84.4 3.2 3.2.9 5.6 1.9 5.4 2.1-.1.1-9.9-.4-21.6-1.3zm15.7 18.4c-7.6-1.1-36.6-3.6-41.3-3.6-2.6 0-4.3-.3-4-.6.6-.6 46.1 1.4 48.4 2.1.7.2 1.2.9 1.2 1.6 0 .8-1.4 1-4.3.5zm-34.1-9.7c-31.6-1.2-47.4-2.3-65.6-4.4l-10.7-1.2 6.1-.6c3.4-.3 8.9-.3 12.2.2 13.3 1.7 46 4 67.6 4.6 14.5.4 22.4 1 21.8 1.6-.5.6-11.9.6-31.4-.2zm20.9 32.3c-2.4-.2-.7-.4 3.8-.4s6.5.2 4.4.4c-2.1.2-5.8.2-8.2 0zm-13.8-13.9c-10-.7-18.4-1.5-18.6-1.8-.5-.6 10.9 0 29.3 1.4 4.7.4 8.2.9 7.9 1.1-.2.3-8.6 0-18.6-.7zm-71.1 7.6c-15.5-1.9-27.5-4.3-31.1-6.1-4.4-2.3 12.4-3.1 23.9-1.1 11.9 2.1 47.2 6.4 60.2 7.5 8.9.7 6.9.9-14.8 1.1-18 .1-28.7-.2-38.2-1.4zm34.9-43.7c-1.2-.2-.5-.4 1.8-.5 2.2 0 3.3.2 2.3.4-1 .3-2.9.3-4.1.1zm-17.5.3c-6.9 0-18.7.5-26.1 1.1-10.5.9-14.9.9-19.6-.2-3.4-.7-6.2-1.6-6.5-2s6.8-1.3 15.6-2c11.9-1 18.9-1 27.2-.2 6.2.6 13.6 1.1 16.6 1.1 3 0 5.3.5 5.3 1 .1.8-4.7 1.2-12.5 1.2zm-24.1 27.2l-6.6-1.5 6.1-.1c3.4-.1 10 .5 14.8 1.2l8.7 1.3-8.2.3c-4.5.1-11.1-.4-14.8-1.2zm-8.7-37.4c-4.1-.4-.5-.7 10.7-.7 15.7 0 16.1 0 6.1.7-5.9.3-13.4.3-16.8 0zm-7.3 26.9c-11.4-2.5-17.1-4.8-10-4.1 2.3.3 10.3 1.5 18.1 2.9 14 2.4 14 2.4 8.2 3-4.2.3-8.9-.2-16.3-1.8z"/></svg>