<?xml version="1.0" encoding="utf-8"?>
<!-- Generator: Adobe Illustrator 23.0.2, SVG Export Plug-In . SVG Version: 6.00 Build 0)  -->
<svg version="1.1" id="Layer_1" xmlns="http://www.w3.org/2000/svg" xmlns:xlink="http://www.w3.org/1999/xlink" x="0px" y="0px"
	 viewBox="0 0 308 68" enable-background="new 0 0 308 68" xml:space="preserve">
<linearGradient id="SVGID_1_" gradientUnits="userSpaceOnUse" x1="0" y1="36.1072" x2="308.1" y2="36.1072" gradientTransform="matrix(1 0 0 -1 0 70)">
	<stop  offset="2.463953e-02" style="stop-color:#E5BA37"/>
	<stop  offset="0.5054" style="stop-color:#E2B636"/>
	<stop  offset="1" style="stop-color:#8F4E1C"/>
</linearGradient>
<path fill="url(#SVGID_1_)" d="M272.3,0.9c-1.4,0.8-3.1-0.7-5.3-0.3C267.8-0.4,270.8,0.8,272.3,0.9z M229.9,0.7
	c-0.7,0.2-8-0.6-7.5,0.6c2.4-0.3,5.9,0.1,9.8-0.6C231.4,0.7,230.6,0.7,229.9,0.7z M208.1,1.8c2.3-0.1,5.4,0.1,6-0.8
	c-16.8,1.4-38.5,1.4-53.7,3.6C175.2,3.8,192.1,2.8,208.1,1.8z M199.1,3.7c1,0.4,3.3,0.1,5.6,0c1-0.1,4.7,0.2,3.4-0.3
	c-3.9,0-6.2,0.1-8.3-0.8C199.6,3,199.3,3.3,199.1,3.7z M114.9,4c1.5-0.3,3.7-0.1,4.9-0.6C118.6,3.2,116,2.8,114.9,4z M175,4.5
	c0.4,0,1.1,0,1.1,0.3c-0.4,0.1-0.6,0.3-0.8,0.6c1.3-0.2,4.8-0.2,4.5-0.6c-2,0-1.1,0-0.8-0.8C178.3,4.5,175.8,3.9,175,4.5z
	 M257.7,4.5c-1.6-0.5,2.8-0.1,1.1-0.5c-1.4,0-2.7,0-3.4,0.5C256.5,4.1,257.3,5.3,257.7,4.5z M286.6,4.5c-1.1,0.2-3.2-0.4-3.8,0.3
	C284,4.6,286.1,5.1,286.6,4.5z M288.1,5.6c1.4,0,5.1,0.3,3.8-0.8C291.1,4.8,289,5,288.1,5.6z M299.4,59.8c-0.1-0.7,1.6-2.5,0-2.5
	C300,58.6,297.6,59.2,299.4,59.8z M213,64.4c1.3-0.2,3.5,0.4,4.1-0.3C215.4,64,214.2,63.7,213,64.4z M144.6,67.2
	c2.5-0.2,7.1,0.8,7.9,0C149.1,66.8,146.8,66,144.6,67.2z M135.2,67.5c1.3-0.2,3.5,0.4,4.1-0.3C138.5,66.7,135.6,66.7,135.2,67.5z
	 M128.5,67.7c0.2-1-3.4-0.6-3.8-0.3C125.7,67.9,127.3,67,128.5,67.7z M284.3,1.2c0.3-1,1.9,0.7,2.3-0.3c-1.1,0-2.4-1.3-3-0.8
	C285.1,0.2,283.3,1,284.3,1.2z M9.8,17.2c-1.1,0.6-0.4,2.2-2.6,2.5c0-0.4-1.1-0.2-0.4,0c0.1,2.1-4.4,2.1-6.8,2.2
	c1.6,0.5,4.8-0.2,4.9,1.4c-0.9,0-1.8-0.1-1.9,0.5c2,0.1,4,0.2,3.8,1.9c-0.6-0.2-3.3,0-3,0.3c0.7,0.6,2.4-0.3,3,0.3
	C8.7,28,5.6,33,3.8,32c0.2,0.5,1.8,0,1.9,0.5c-0.7,0.5-0.9,1.3,0,1.6c0-0.5,0-0.9,0-1.4c0.7-0.4,3.2-1,4.1-0.3
	c-0.6,1.4,0,2.2-1.5,2.7c-1.4-0.1-3.8-0.8-4.9-0.3c1.1,0.4,3,0.2,3.8,0.8c-4.5,0.1-0.8-0.1,0.4,0.8c-0.5,0.3-0.8,0.7-1.1,1.1
	c0.5,0.6,0.9-0.3,1.1,0.3c-1.2,0.5,0.3,1.3-1.1,1.7c-0.9,0.2-2.7-0.3-3,0.3c1.2,0.5,3.9-0.1,3.4,1.6c-0.6,0-1.4-0.1-1.5,0.3
	c2.3,0-0.5,0.4,1.1,0.8c0.1,0.6-1.1,0.3-1.1,0.8c1.9,0,0.6,1,0,1.4c-0.8,0.2-2.5-0.3-2.6,0.3c0.7,0.4,2.5,0,3,0.6
	c-0.6,0-3.4-0.1-2.3,0.3C5.3,45.8,6.6,46,6.9,47c-2-0.4-3.8,0.9-3,1.7c0.4-0.3,0.1-1,1.1-0.8c0,0.4,0.7,0.3,0.7,0.5
	c-1.4,1.2,0.6,2,1.5,3c-0.6,0.3-1.5,0.3-1.9,0.8c1.8,0.2,4.1-0.7,4.9-0.3c-0.5,1.8,1.1,2.1,1.5,3.3c-0.4,1-1.5,1.5-2.6,1.9
	c2.5,0.6-1.9,1.9-1.5,1.9c1.7-0.1,4.5,0.3,2.6,1.1c0.5,0.2,1.9-0.3,1.9,0.3c-0.5,0.2-1.9-0.3-1.9,0.3c0.3,0.1,0.7,0,0.8,0.3
	c-0.2,0-0.4,0.2,0,0.3c1.3-0.9,6.6-0.9,7.9,0c-0.5,0.7-4.2,0.4-3.8,0.8c1.7,0,6.3-0.3,4.1,0.8c5.7-0.7,11.7-0.4,16.9,1.1
	c-1,0.4-4.2,0.5-3.8,1.1c1.6-1.3,2.2,1.4,3,0.6c-0.3-0.1-0.4-0.2-0.4-0.6c0.8,0.3,1.2-0.8,2.3-0.8c8.2-0.5,23.8,3.4,31.9,2.7
	c-0.3-0.1-0.7,0-0.8-0.3c12,1,29.1,0,43.2,0.6c-0.9,0-1.6,0.1-1.9,0.5c1.8,0,3.5,0,5.3,0c-1.3-1.8,2.2,0.6,0.4-0.8
	c2.4-0.1,4.8,1.3,7.1,0.3c-0.9,0-1.6-0.1-1.9-0.6c11.7,0.4,23.7-2.5,34.2,0c-0.3,0.1-0.7,0-0.8,0.3c11.9-0.4,17.1-1,28.9-1.4
	c0,0.4-0.2,0.6-0.4,0.8c1,0,1.8-0.2,2.3-0.6c-0.4-0.9-1.9-0.1-3-0.8c3.2,0.4,4.4-1,6.4-0.3c-0.9,0.5-1.8-0.3-2.6,0.6
	c3,0.2,4.9-0.5,7.9-0.3c0.8-0.4-0.5-0.7,0.4-0.8c0.1,1.1,3.9-0.9,2.3,0.6c2,0,5.3,0.6,6.8-0.3c-0.8-0.5-2.8,0-3.4-0.5
	c2.2-0.8,5.9-0.4,8.6,0c-1.8,0.2-2.5-0.2-3,0.5c2,0.6,2-0.7,3.8,0c0.1-0.5-0.6-0.7,0-0.8c3.6-0.1,5.2-0.3,9.4-0.3
	c0,0.3-0.3,0.3-0.4,0.5c0.7-0.2,2.2,0.3,2.3-0.3c-0.4,0-1.1,0-1.1-0.3c0.8-0.2,3.1-0.7,3.8,0c-0.8,0.6-1.7-0.4-2.3,0.5
	c2.4-0.1,4.2,0.7,5.3-0.5c0.7,0.5,2,1,0.8,1.4c1.5-0.3,5.5-0.4,5.6-0.8c-5.9,0.2-3-1.1,1.5-0.5c0,0.4-0.5,0.4-0.4,0.8
	c10.4-0.2,20.7,1,29.7,0.3c-0.3-0.1-0.7,0-0.8-0.3c1.4,0,2.4,0,1.1,0.6c2.7,0,6.1,0.9,7.1-0.8c-1.9,0.1-3-0.3-3.8-1.1
	c6.1-0.9,4.3-0.5,9.8,0c-0.7-1.4,3.6-2.4,3-1.1c4.9-0.4,6.8-2.9,11.3-3.6c0,0.5-1.2,0.2-1.1,0.8c3.3-0.5,3.2,1.5,6.4,1.1
	c0.2-0.9-1.1-0.8-1.5-1.4c0.7,0,1.3-0.2,1.5-0.5c-1-0.1-0.5-1.2-0.4-1.4c1.6,0.3,0.9,0.2,0.4-0.6c2.2-0.5,3.5,0.6,6,0
	c0.1-1.2-1.1,0.1-1.5-0.5c1-0.7-0.3-1-0.4-1.7c0.9-0.6,3.3-0.9,1.1-1.4c1.4-0.6,2.2,1.3,2.3,0c-1.2,0-1.3-0.7-2.6-0.6
	c1-0.7-1-2.4-1.5-1.9c0.4,0,0.5,0.5,0,0.5c-1,0-1.9,0-1.9-0.8c1.1-1.8,3.2-1.9,6-1.9c0.2-0.7,0.2-1.2,1.5-1.6
	c0.4,0.1,1.4,1.1,1.9,0.3c-1,0-1.5-0.4-1.5-1.1c0.5-0.4,2.1-0.4,2.6,0c-0.7-0.6-0.6-1.3-0.8-1.7c-4-0.7-2.9-4.8-5.3-6.9
	c-0.1-0.9,1.4-0.6,1.9-1.1c-0.3-0.7-1.8-0.5-2.3-1.1c0.3-0.9,2.9,0.1,2.3-0.5c-1.1-0.3-2-0.3-3,0c0.3-0.7-2.4-1.5-0.7-2.2
	c-1.2-0.2-1.5-0.4-2.3-1.4c1.4,0.2,1.4-0.6,2.6-0.5c-0.9-0.6-1-0.9-1.1-2.5c0.9,0.1,1.4-0.1,1.5-0.5c-1.3-0.8-1.6-2.3-2.6-3.3
	c0.6,0.8,2.6-0.4,1.5-0.8c-1.2,0.9-0.1-0.8-0.4-1.6c-2.1-0.5-2.8-2-2.3-3c0.1,1-1.7-0.2-1.9,0c1.4-1-1.9-1.4-0.8-2.2
	c1.5,0.3,1.2,1.9,2.6,2.2c0.7-0.7-0.4-1.3,0.8-1.9c-1.8,0-2-1.1-2.6-1.9c1.3,0,2.9,0.7,1.5,1.1c0.5,0.1,1.8,0.8,1.9,0.3
	c-1.3-0.8,0.9-0.2,0.8-0.5c-2.1-0.2-3.7-2.2-3.4-3.3c3.1-0.4,4,1.6,5.6,3c-0.1-3.2-3.2-4.1-5.6-5.5c0.2-0.8,0-1.5,1.1-1.4
	c-1.5-0.3-3.8-0.5-6.4-0.5c0.3,0.1,0.7,0,0.8,0.3c-0.6,0-1.3,0-1.1,0.5c1.9-0.2,3.5,0.7,3.4-0.3c0.4,1,1.7-0.2,1.5,0.8
	c-1.6,0.3-7.3-0.1-6-1.4c-1.2,0.5-1.9,0-2.6-0.6c1.2-0.2,3.2,0.3,3.4,0c-1.5-0.7-4.1-2.1-5.6-0.5c0.4,0,1.1,0,1.1,0.3
	c-2.8,0.7-8.3,1-12.8,0c3.4,0,6.6-0.1,9.4-0.5c-0.4,0-1.1,0-1.1-0.3c2.2-0.2,3.2,0.2,4.1-0.6c-6.1-1.1-11.3,1.5-18.8,1.1
	c-0.1-0.7-0.1-1.3,0.8-1.4c0.5,0,1.4,0.9,1.5,0.3c-0.4-0.1-0.6-0.3-0.7-0.5c5.2-0.4,9.5,0.5,11.6-0.8c-3.1,0.2-4.7-0.6-6.4-1.4
	c2.4,0.1,3.5-0.8,4.5-1.6c-0.7,0.1-1.9-0.8-2.3,0c0.5,0,0.9,0.1,0.8,0.5c-2.1,0.7-3.5,0.4-4.9,1.4c0.7,0.1,1.6-0.8,1.5,0.3
	c-2.2-0.2-4.9,0.3-6,0c0.1,1.5,3-0.3,3.4,0.6c-3.3,1.1-8.5,0.4-12,0.8c0.3,0.1,0.7,0,0.8,0.3c-13.8,0-29-1.6-43-0.3
	c-1.2,0.1-2.2,0.5-3.4,0.6c-16.8,0.3-33.7,1.3-51.1,0.8c-1.8-0.1-4.4-0.7-6,0.8c2,0.2,5-0.4,6.4,0.3c-7-0.2-13.9,0.9-19.5-0.3
	c4.4,0,8.6-0.1,12.4-0.5c-4.4-0.3-12,0-17.7-0.6c6.7-0.9,16.8-0.4,21.8-1.6c-2.8,0.1-6.6-0.6-9.4,0.5c0-0.2,0-0.4,0-0.5
	c-12.7,2-35.3,0.8-50,1.9c0.6,0,1.3,0,1.1,0.5c-2.9-0.2-11.8,0-15.8,0.3c0.9-0.1-3.7,0.9-3.8,0c0,0.2,4.8-0.3,1.9-0.3
	C68.5,7.2,54.2,5,41.7,5.6c0.5,0.1,1.9-0.3,1.9,0.3c-5.4,1.2-14.1,1.4-20.7,0.8C19.6,9.3,13,6.4,9.8,8.6c1.4,0.7,3.4,0.8,4.1,1.9
	C11.3,12.5,7.6,13.7,9.8,17.2z M297.5,12.2c-2.5-0.9-3.8-1-6-2.2C292.8,10.1,296.9,10.6,297.5,12.2z M213.7,5.9
	c-1.8,0.8-3.2,0.2-5.6,0.3C208.8,5.7,212.4,5.6,213.7,5.9z M247.1,6.7c1.3-0.7,3.3-0.6,4.1,0c2.2-1.4,3.9-0.9,8.3-1.1
	c-0.9,1.6-4,0.3-4.9,0.8c2,0.4,6.9,0.4,1.5,0.5c-0.9,0-1.1,0.5-2.3,0.3C254.1,5.9,250.4,7.5,247.1,6.7z M202.8,6.2
	c-0.7,1.1-3.2-0.2-5.3,0.5C198.1,5.6,201.1,6.4,202.8,6.2z M113.4,6.7c-1.7,0.4-4,0.6-5.6,0.3C109.3,6.6,111.8,6.2,113.4,6.7z
	 M122.4,6.4c-1.1,0.8-1.9,0.3-4.1,0.5C118,6.6,121,6.4,122.4,6.4z M61.6,7.3C60.7,7,52,8.5,50.7,7.5C51.7,8.2,59.6,6.4,61.6,7.3z
	 M294.1,12.8c0.7-0.9,1.3,0.6,1.9,0.8c-0.6,0.9-1-0.7-2.3-0.3c0-0.3,0.5-0.2,0.8-0.3C294.5,12.8,294.3,12.8,294.1,12.8z M299.4,43.8
	c0.1-0.4,2.5-0.2,2.3,0.5c-0.6,0-1.3,0-1.9,0C299.8,44,299.7,43.9,299.4,43.8z M302.7,44.6c-0.1,0.7-1,0.9-1.9,1.1
	C300.9,45,301.5,44.6,302.7,44.6z M302.4,47.9c-0.4-0.1-0.3-0.5-0.8-0.5c-0.3-0.8,0.7-0.6,0.8-1.1C302.4,47.2,303.8,46.9,302.4,47.9
	z M173.5,64.4c-0.8,1.1-3.5,0.1-4.5,0.6C170.1,64.1,171.4,63.9,173.5,64.4z M182.2,64.2c1-0.2,2.3-0.5,4.1,0
	C185.4,64.4,183.5,64.6,182.2,64.2z M166.8,65c0.1,0.6-1.3,0.1-1.9,0.3c3.5,1.1,9.5-0.5,14.6,0c2,0.2-0.8,0.4-1.5,0.3c-1,0-2,0-3,0
	c-6.5,0.7-11.9,0.4-19.5,0.5C158.5,65.1,161.9,65.3,166.8,65z M108.5,2.6c0.6-0.7,3.3,0.2,3.4-0.8c-3.8,0.5-6.1,0.3-8.6,0.8
	c1.4,0.8,3.5-0.1,4.1,0.8c-0.5,0.2-1.9-0.3-1.9,0.3c1.1,0.8,3.4-0.3,4.1,0.3C111.2,3.2,110,3.6,108.5,2.6z M166,5.9
	c1.3-1,6.1,0.6,6.8-0.8C170.8,5.8,165.8,4.3,166,5.9z M78.9,3.4C61.3,3.7,40.2,2.3,27.4,4.5c3.7-0.6,8.5,1.6,12.8,0.6
	c-1.1-0.5-3.5,0-3.8-1.1c4.7,0.3,8.4-0.8,12.8-0.3c-0.7,0.7-5.5-0.2-4.9,0.5c8.1,0,17.8,1,22.5,0c12.2,1,23.7,0.3,36.4-0.5
	c-1.8-0.8-4.4,0.6-5.6-0.6c1.5-0.4,4.2,0.1,4.9-0.8c-8,0.5-20.2,1-24.8,1.4C78.2,3.6,78.8,3.7,78.9,3.4z M95.4,3.4
	c-1.7,0.3-4.7,0.9-6.4,0.3C90.4,2.9,93.5,3.1,95.4,3.4z"/>
</svg>
