<?xml version="1.0" encoding="utf-8"?>
<!-- Generator: Adobe Illustrator 23.0.2, SVG Export Plug-In . SVG Version: 6.00 Build 0)  -->
<svg version="1.1" id="Capa_1" xmlns="http://www.w3.org/2000/svg" xmlns:xlink="http://www.w3.org/1999/xlink" x="0px" y="0px"
	 viewBox="0 0 512 512" enable-background="new 0 0 512 512" xml:space="preserve">
<path d="M0.7,165.9v327.3c0,10.4,8.4,18.8,18.8,18.8h473.1c10.4,0,18.8-8.4,18.8-18.8V165.9L0.7,165.9z M96.7,471.6
	c-30.4,0-55.2-24.7-55.2-55.2c0-30.4,24.7-55.2,55.2-55.2s55.2,24.7,55.2,55.2C151.8,446.8,127.1,471.6,96.7,471.6z M96.7,320.9
	c-30.4,0-55.2-24.7-55.2-55.2s24.7-55.2,55.2-55.2s55.2,24.7,55.2,55.2S127.1,320.9,96.7,320.9z M255.9,471.6
	c-30.4,0-55.2-24.7-55.2-55.2c0-30.4,24.7-55.2,55.2-55.2s55.2,24.7,55.2,55.2C311.1,446.8,286.3,471.6,255.9,471.6L255.9,471.6z
	 M255.9,320.9c-30.4,0-55.2-24.7-55.2-55.2s24.7-55.2,55.2-55.2s55.2,24.7,55.2,55.2S286.3,320.9,255.9,320.9L255.9,320.9z
	 M457,434.9c5.9,5.9,5.9,15.4,0,21.2c-5.8,5.8-15.4,5.9-21.2,0l-19.4-19.4l-19.4,19.4c-5.8,5.8-15.4,5.9-21.2,0
	c-5.9-5.9-5.9-15.4,0-21.2l19.4-19.4L375.7,396c-5.9-5.9-5.9-15.4,0-21.2c5.9-5.9,15.4-5.9,21.2,0l19.4,19.4l19.4-19.4
	c5.9-5.9,15.4-5.9,21.2,0c5.9,5.9,5.9,15.4,0,21.2l-19.4,19.4L457,434.9z M415.2,320.9c-30.4,0-55.2-24.7-55.2-55.2
	s24.7-55.2,55.2-55.2c30.4,0,55.2,24.7,55.2,55.2S445.6,320.9,415.2,320.9z"/>
<path d="M102.6,35.5V15c0-8.3-6.7-15-15-15c-8.3,0-15,6.7-15,15v20.4H102.6z"/>
<path d="M214.9,35.5V15c0-8.3-6.7-15-15-15c-8.3,0-15,6.7-15,15v20.4H214.9z"/>
<path d="M327.2,35.5V15c0-8.3-6.7-15-15-15c-8.3,0-15,6.7-15,15v20.4H327.2z"/>
<path d="M439.4,35.5V15c0-8.3-6.7-15-15-15c-8.3,0-15,6.7-15,15v20.4H439.4z"/>
<path d="M492.6,65.5h-53.1v17.9c0,8.3-6.7,15-15,15c-8.3,0-15-6.7-15-15V65.5h-82.2v17.9c0,8.3-6.7,15-15,15c-8.2,0-15-6.7-15-15
	V65.5h-82.2v17.9c0,8.3-6.8,15-15,15c-8.3,0-15-6.7-15-15V65.5h-82.2v17.9c0,8.3-6.7,15-15,15c-8.3,0-15-6.7-15-15V65.5H19.4
	c-10.4,0-18.8,8.4-18.8,18.8v51.6h510.7V84.3C511.3,73.9,502.9,65.5,492.6,65.5z"/>
<circle cx="96.7" cy="265.7" r="25.1"/>
<ellipse cx="256" cy="265.8" rx="25.1" ry="25.1"/>
<ellipse cx="415.3" cy="265.7" rx="25.1" ry="25.1"/>
<circle cx="96.7" cy="416.4" r="25.1"/>
<ellipse cx="256" cy="416.5" rx="25.1" ry="25.1"/>
</svg>
