<?xml version="1.0" encoding="utf-8"?>
<!-- Generator: Adobe Illustrator 23.0.2, SVG Export Plug-In . SVG Version: 6.00 Build 0)  -->
<svg version="1.1" id="Слой_1" xmlns="http://www.w3.org/2000/svg" xmlns:xlink="http://www.w3.org/1999/xlink" x="0px" y="0px"
	 viewBox="0 0 512 512" enable-background="new 0 0 512 512" xml:space="preserve">
<path fill="#FFFFFF" d="M256,240c-23.4,0-44,11-57.8,27.8c0.9,3,1.8,6.1,3.4,8.9c7.9,14.4,23,23.3,39.4,23.3h88.5
	C322.5,265.8,292.2,240,256,240z"/>
<path fill="#FFFFFF" d="M182.4,300.8c-0.9,4.6-1.4,9.3-1.4,14.2c0,0,0,32.2,0.1,33.3c1.1,23.5,21.4,41.7,44.9,41.7
	c8.3,0,15,6.7,15,15c0,8.3,6.7,15,15,15s15-6.7,15-15c0-8.3,6.7-15,15-15c23.6,0,43.8-18.2,44.9-41.7c0.1-1.1,0.1-2.2,0.1-3.3v-15
	h-90C217.8,330,196.5,318.8,182.4,300.8z"/>
<path fill="#FFFFFF" d="M346,420h-45c0,16.6-13.4,30-30,30h-30c-16.6,0-30-13.4-30-30h-45c-24.9,0-45,20.1-45,45v32
	c0,8.3,6.7,15,15,15h240c8.3,0,15-6.7,15-15v-32C391,440.1,370.9,420,346,420z"/>
<path fill="#FFFFFF" d="M60.9,60h133.6c-7-34.2-37.3-60-73.5-60H31c-8.3,0-15,6.9-15,15.2C16.1,40,36.2,60,60.9,60z"/>
<path fill="#FFFFFF" d="M46,135c0,27.1,21.6,45,45,45c8.3,0,15,6.7,15,15c0,8.3,6.7,15,15,15s15-6.7,15-15c0-8.3,6.7-15,15-15
	c23.4,0,45-17.9,45-45V90H46V135z"/>
<path fill="#FFFFFF" d="M391,0c-66.3,0-120,53.7-120,120v60h60.6c-9.9-12.9-15.7-28.7-15.6-45.3c0-8.2,6.9-14.7,15.1-14.8
	c24.8,0,44.9-20.2,44.9-45c0-8.3,6.7-15,15-15s15,6.7,15,15c0,24.8,20.1,44.9,44.9,45c8.2,0,15.1,6.6,15.1,14.8
	c0.1,16.6-5.8,32.3-15.6,45.3H481c11,0,22.1,3.2,31,8.3V120C512,53.7,457.3,0,391,0z"/>
<path fill="#FFFFFF" d="M255.6,210c0.1,0,0.2,0,0.4,0L255.6,210C255.6,210,255.6,210,255.6,210z"/>
<path fill="#FFFFFF" d="M481,210h-47.6c-0.1,0.1-0.1,0.1-0.2,0.1C426.4,229,408.4,240,391,240c-17.7,0-35.5-11.2-42.2-29.9
	c-0.1-0.1-0.1-0.1-0.2-0.1H256c57.9,0,105,47.1,105,105v15h60v-45c0-8.3,6.7-15,15-15s15,6.7,15,15v45h46c8.3,0,15-6.7,15-15v-75
	C512,223.4,497.6,210,481,210z"/>
<path fill="#FFFFFF" d="M391,210c8.3,0,15-6.7,15-15v-8.3c0-5.3,2.8-10.3,7.5-13c10.1-5.9,17.3-15,20.6-25.6
	c-17.5-4-32.6-14.2-43.1-28.1c-10.4,13.9-25.6,24.1-43.1,28.1c3.3,10.6,10.5,19.7,20.6,25.6c4.6,2.7,7.5,7.6,7.5,13v8.3
	C376,203.3,382.7,210,391,210z"/>
<path fill="#FFFFFF" d="M151,330v-15c0-45.1,28.7-83.3,68.7-98.1c-6.9-4.3-14.9-6.9-23.7-6.9h-32.6c-6.2,17.5-22.9,30-42.4,30
	s-36.2-12.5-42.4-30H46c-24.9,0-46,20.1-46,45v60c0,8.3,6.7,15,15,15h46v-45c0-8.3,6.7-15,15-15s15,6.7,15,15v45H151z"/>
</svg>
