<?xml version="1.0" encoding="utf-8"?>
<!-- Generator: Adobe Illustrator 23.0.2, SVG Export Plug-In . SVG Version: 6.00 Build 0)  -->
<svg version="1.1" id="Слой_1" xmlns="http://www.w3.org/2000/svg" xmlns:xlink="http://www.w3.org/1999/xlink" x="0px" y="0px"
	 viewBox="0 0 512 512" enable-background="new 0 0 512 512" xml:space="preserve">
<path fill="#FFFFFF" d="M136,452c-8.3,0-15,6.7-15,15v30c0,8.3,6.7,15,15,15s15-6.7,15-15v-30C151,458.7,144.3,452,136,452z"/>
<path fill="#FFFFFF" d="M206.6,426.4c-5.9-5.9-15.4-5.9-21.2,0s-5.9,15.4,0,21.2l30,30c2.9,2.9,6.8,4.4,10.6,4.4
	c3.8,0,7.7-1.5,10.6-4.4c5.9-5.9,5.9-15.4,0-21.2L206.6,426.4z"/>
<path fill="#FFFFFF" d="M65.4,426.4l-30,30c-5.9,5.9-5.9,15.4,0,21.2s15.4,5.9,21.2,0l30-30c5.9-5.9,5.9-15.4,0-21.2
	S71.3,420.5,65.4,426.4z"/>
<path fill="#FFFFFF" d="M376,60c8.3,0,15-6.7,15-15V15c0-8.3-6.7-15-15-15s-15,6.7-15,15v30C361,53.3,367.7,60,376,60z"/>
<path fill="#FFFFFF" d="M446.6,86.6l30-30c5.9-5.9,5.9-15.4,0-21.2s-15.4-5.9-21.2,0l-30,30c-5.9,5.9-5.9,15.4,0,21.2
	S440.7,92.5,446.6,86.6z"/>
<path fill="#FFFFFF" d="M305.4,86.6c5.9,5.9,15.4,5.9,21.2,0s5.9-15.4,0-21.2l-30-30c-5.9-5.9-15.4-5.9-21.2,0s-5.9,15.4,0,21.2
	L305.4,86.6z"/>
<path fill="#FFFFFF" d="M301,256c0-16.6-13.4-30-30-30h-15c-8.3,0-15-6.7-15-15v-90h-75v-15c0-24.8-20.2-45-45-45s-45,20.2-45,45v15
	H15c-8.3,0-15,6.7-15,15v75c0,8.3,6.7,15,15,15h16c16.6,0,30,13.4,30,30s-13.4,30-30,30H15c-8.3,0-15,6.7-15,15v75
	c0,8.3,6.7,15,15,15h61c8.3,0,15-6.7,15-15v-15c0-16.6,13.4-30,30-30s30,13.4,30,30v15c0,8.3,6.7,15,15,15h75v-90
	c0-8.3,6.7-15,15-15h15C287.6,286,301,272.6,301,256z"/>
<path fill="#FFFFFF" d="M481,226h16c8.3,0,15-6.7,15-15v-75c0-8.3-6.7-15-15-15h-61c-8.3,0-15,6.7-15,15v15c0,16.6-13.4,30-30,30
	s-30-13.4-30-30v-15c0-8.3-6.7-15-15-15h-75v75c34.1,0,60,28.4,60,60c0,31.6-25.9,60-60,60v75h75v15c0,24.8,20.2,45,45,45
	s45-20.2,45-45v-15h61c8.3,0,15-6.7,15-15v-75c0-8.3-6.7-15-15-15h-16c-16.6,0-30-13.4-30-30S464.4,226,481,226z"/>
</svg>
