<?xml version="1.0" encoding="utf-8"?>
<!-- Generator: Adobe Illustrator 23.0.2, SVG Export Plug-In . SVG Version: 6.00 Build 0)  -->
<svg version="1.1" id="Слой_1" xmlns="http://www.w3.org/2000/svg" xmlns:xlink="http://www.w3.org/1999/xlink" x="0px" y="0px"
	 viewBox="0 0 512 512" enable-background="new 0 0 512 512" xml:space="preserve">
<g transform="translate(-1 -1)">
	<path id="Shape" fill="#FFFFFF" d="M430.1,364.2c0.7-3.7,3.6-6.6,7.3-7.3c14-2.6,25.2-13,28.7-26.8c-6.7-0.3-13.4-1.5-19.8-3.6
		c-17.2,17.5-42.2,25.2-66.3,20.5c-6.6,5.9-14.2,10.7-22.4,14.2c1.9,18.1,16.7,32,34.9,32.8c18.2,0.8,34.1-11.9,37.5-29.8H430.1z"/>
	<path fill="#FFFFFF" d="M348.4,485.6h27.4c5,0,9.1-4.1,9.1-9.1v-64.8c-23.3-4-41.4-22.4-45-45.7c-17.9,2.4-36.1-1.8-51-12
		c-9.6,6.5-20.5,10.7-32,12.1v5.3c0,17.7,14.3,32,32,32c27.8,0.1,50.2,22.5,50.3,50.3v22.9C339.3,481.5,343.4,485.6,348.4,485.6z"/>
	<path fill="#FFFFFF" d="M13.8,195.7c2.3-2.6,5.8-3.7,9.1-2.9s5.9,3.5,6.7,6.8s-0.4,6.8-3,9.1c-17.3,17.1-21.3,43.5-9.9,64.9
		s35.6,32.8,59.4,27.9c-1.3-5.6-2-11.3-2-17c0-5,4.1-9.1,9.1-9.1c5,0,9.1,4.1,9.1,9.1c0,27.2,20,50.3,47,54.2
		c26.9,3.9,52.7-12.5,60.5-38.6c1.5-4.8,6.6-7.6,11.4-6.1c4.8,1.5,7.6,6.6,6.1,11.4c-2.5,8.4-6.5,16.2-11.8,23.1
		c12,14.3,30.4,21.5,48.8,19.2c18.5-2.3,34.5-13.8,42.6-30.6c2.2-4.6,7.6-6.5,12.2-4.3c4.6,2.2,6.5,7.6,4.3,12.2
		c-2.8,5.9-6.4,11.4-10.7,16.4c13.2,7.5,29,9.1,43.5,4.5c14.5-4.6,26.4-15,33-28.7c2.2-4.6,7.6-6.5,12.2-4.3
		c4.6,2.2,6.5,7.6,4.3,12.2c-0.9,1.8-1.9,3.5-3,5.1h1.3c24.3,0,45.7-16,52.6-39.2c0.9-3.1,3.5-5.5,6.7-6.3s6.5,0.3,8.8,2.7
		s3,5.8,2.1,8.9c-1.5,5.1-3.6,10-6.1,14.6c20.2,4,40.6-6,49.8-24.4c9.2-18.4,4.9-40.8-10.4-54.5c-6.4-5.6-14.1-9.3-22.5-10.7
		c-5-0.9-8.4-5.6-7.6-10.7s5.6-8.4,10.7-7.6c8.8,1.5,17.2,4.8,24.6,9.7c11-13.7,13.3-32.5,5.7-48.4c-7.6-15.9-23.6-26-41.2-26
		c-5,0-9.1-4.1-9.1-9.1s4.1-9.1,9.1-9.1c6.2,0,12.4,0.9,18.3,2.7c1.6-29.7-20.9-55.3-50.6-57.6c2,5.5,3.4,11.2,4.2,17
		c0.4,3.3-1,6.5-3.6,8.5c-2.6,2-6.1,2.4-9.1,1.1c-3-1.3-5.1-4.1-5.5-7.4c-2.7-20.2-14.9-38-32.9-47.7s-39.5-10.4-57.9-1.6
		c4.6,5.1,8.4,10.9,11.4,17.1c2.2,4.6,0.2,10-4.3,12.2c-4.6,2.2-10,0.2-12.2-4.3C318,44.9,304.7,34,288.8,30
		c-15.9-4-32.8-0.6-46,9.1c5,4.6,9.3,9.9,12.8,15.6c1.9,4.3,0.3,9.3-3.7,11.7s-9.2,1.3-12-2.5c-9.3-15.3-25.5-25.2-43.4-26.3
		c-17.9-1.2-35.2,6.5-46.4,20.5c8.1,5.2,15.1,11.9,20.6,19.7c2.9,4.2,1.8,9.9-2.3,12.8c-4.2,2.9-9.9,1.8-12.8-2.3
		c-13.8-19.5-38.6-27.9-61.4-20.6C71.3,74.8,55.9,96,55.9,119.9c10.8,0,21.6,2.4,31.4,7c4.5,2.2,6.5,7.6,4.3,12.2
		c-2.1,4.6-7.6,6.5-12.2,4.4c-9.5-4.4-20-6.1-30.4-4.8c-16,2-30.2,10.9-39,24.4c-8.8,13.5-11.2,30.1-6.7,45.5
		C6.2,203.8,9.8,199.5,13.8,195.7L13.8,195.7z M321,156.4c0-5,4.1-9.1,9.1-9.1c5,0,9.1,4.1,9.1,9.1v9.1c0,5-4.1,9.1-9.1,9.1
		c-5,0-9.1-4.1-9.1-9.1V156.4z M229.6,193c5,0,9.1,4.1,9.1,9.1c0,15.1,12.3,27.4,27.4,27.4c15.1,0,27.4-12.3,27.4-27.4
		c0-5,4.1-9.1,9.1-9.1c5,0,9.1,4.1,9.1,9.1c0,25.2-20.5,45.7-45.7,45.7s-45.7-20.5-45.7-45.7c0-2.4,1-4.8,2.7-6.5
		S227.1,193,229.6,193z M193,156.4c0-5,4.1-9.1,9.1-9.1s9.1,4.1,9.1,9.1v9.1c0,5-4.1,9.1-9.1,9.1s-9.1-4.1-9.1-9.1V156.4z"/>
</g>
</svg>
