<?xml version="1.0" encoding="utf-8"?>
<!-- Generator: Adobe Illustrator 23.0.2, SVG Export Plug-In . SVG Version: 6.00 Build 0)  -->
<svg version="1.1" id="Capa_1" xmlns="http://www.w3.org/2000/svg" xmlns:xlink="http://www.w3.org/1999/xlink" x="0px" y="0px"
	 viewBox="0 0 512 512" enable-background="new 0 0 512 512" xml:space="preserve">
<g>
	<g>
		<path fill="#FFFFFF" d="M374.6,88c-62.3,0-112.9,50.7-112.9,112.9c0,51.4,41.9,93.3,93.3,93.3c42.8,0,77.6-34.8,77.6-77.6
			c0-35.9-29.2-65.1-65.1-65.1c-30.4,0-55.1,24.7-55.1,55.1c0,8.3,6.7,15,15,15c8.3,0,15-6.7,15-15c0-13.8,11.3-25.1,25.1-25.1
			c19.4,0,35.1,15.8,35.1,35.1c0,26.3-21.4,47.7-47.7,47.7c-34.9,0-63.3-28.4-63.3-63.3c0-45.7,37.2-82.9,82.9-82.9
			c59.2,0,107.4,48.2,107.4,107.4c0,76.1-61.9,135.6-138,135.6h-42v-15c0-8.3-6.7-15-15-15h-45v90h45c8.3,0,15-6.7,15-15v-15h42
			c92.6,0,168-73,168-165.6C512,149.7,450.4,88,374.6,88z"/>
	</g>
</g>
<g>
	<g>
		<path fill="#FFFFFF" d="M227,181h-15v-15c0-8.3-6.7-15-15-15s-15,6.7-15,15v15h-15c-8.3,0-15,6.7-15,15s6.7,15,15,15h15v15
			c0,8.3,6.7,15,15,15s15-6.7,15-15v-15h15c8.3,0,15-6.7,15-15S235.3,181,227,181z"/>
	</g>
</g>
<g>
	<g>
		<circle fill="#FFFFFF" cx="257" cy="46" r="15"/>
	</g>
</g>
<g>
	<g>
		<circle fill="#FFFFFF" cx="467" cy="46" r="15"/>
	</g>
</g>
<g>
	<g>
		<path fill="#FFFFFF" d="M467,391c-24.8,0-45,20.2-45,45s20.2,45,45,45s45-20.2,45-45C512,411.2,491.8,391,467,391z"/>
	</g>
</g>
<g>
	<g>
		<path fill="#FFFFFF" d="M197,301h-30c-8.3,0-15,6.7-15,15v15H15c-5.2,0-10,2.7-12.8,7.1c-2.7,4.4-3,9.9-0.7,14.6l30,60
			c2.5,5.1,7.7,8.3,13.4,8.3h107v15c0,8.3,6.7,15,15,15h30c8.3,0,15-6.7,15-15V316C212,307.7,205.3,301,197,301z"/>
	</g>
</g>
</svg>
