<?xml version="1.0" encoding="utf-8"?>
<!-- Generator: Adobe Illustrator 23.0.2, SVG Export Plug-In . SVG Version: 6.00 Build 0)  -->
<svg version="1.1" id="Layer_1" xmlns="http://www.w3.org/2000/svg" xmlns:xlink="http://www.w3.org/1999/xlink" x="0px" y="0px"
	 viewBox="0 0 512 512" enable-background="new 0 0 512 512" xml:space="preserve">
<path fill="#FFFFFF" d="M79.3,353.5C35.6,353.5,0,389,0,432.7C0,476.4,35.6,512,79.3,512s79.3-35.6,79.3-79.3
	C158.5,389,123,353.5,79.3,353.5z"/>
<path fill="#FFFFFF" d="M79.3,0C35.6,0,0,35.6,0,79.3v278.3c19.9-21,48.1-34.1,79.3-34.1c31.2,0,59.3,13.1,79.3,34.1V79.3
	C158.5,35.6,123,0,79.3,0z"/>
<path fill="#FFFFFF" d="M504.7,43.8C482.2,30.4,458.3,21,433.5,16c-6.6-1.3-13.4,1.9-16.4,8L392.6,73l-25.8-51.7
	c-2.8-5.6-8.8-8.9-15.1-8.2c-41.6,4.6-83.2,17.1-123.5,29.1c-13.1,3.9-26.3,7.8-39.6,11.5v378.9c0,25.8-9,49.5-24,68.2
	c17-4,33.4-8.6,48.8-13c4-1.2,7.4-4,9.2-7.7l25.5-50.9l15.5,31.1c3.2,6.4,10.5,9.6,17.4,7.8c78-21.3,143.3-27.6,208.4,11.3
	c4.6,2.8,10.4,2.8,15.1,0.2c4.7-2.7,7.6-7.6,7.6-13v-410C512,51.4,509.2,46.5,504.7,43.8L504.7,43.8z M395.1,309.7
	c5.9,5.9,5.9,15.4,0,21.2c-2.9,2.9-6.8,4.4-10.6,4.4c-3.8,0-7.7-1.5-10.6-4.4l-21.5-21.5l-21.5,21.5c-2.9,2.9-6.8,4.4-10.6,4.4
	c-3.8,0-7.7-1.5-10.6-4.4c-5.9-5.9-5.9-15.4,0-21.2l21.5-21.5l-21.5-21.5c-5.9-5.9-5.9-15.4,0-21.2c5.9-5.9,15.4-5.9,21.2,0
	l21.5,21.5l21.5-21.5c5.9-5.9,15.4-5.9,21.2,0c5.9,5.9,5.9,15.4,0,21.2l-21.5,21.5L395.1,309.7z"/>
</svg>
