<?xml version="1.0" encoding="utf-8"?>
<!-- Generator: Adobe Illustrator 23.0.2, SVG Export Plug-In . SVG Version: 6.00 Build 0)  -->
<svg version="1.1" id="Capa_1" xmlns="http://www.w3.org/2000/svg" xmlns:xlink="http://www.w3.org/1999/xlink" x="0px" y="0px"
	 viewBox="0 0 512 512" enable-background="new 0 0 512 512" xml:space="preserve">
<path fill="#FFFFFF" d="M263.7,57.4l-24.7,24.7c-1.8,1.8-3.1,4-3.8,6.5l-21.3,74.5l135,135l74.5-21.3c2.5-0.7,4.7-2,6.5-3.8
	l24.7-24.7L263.7,57.4z"/>
<path fill="#FFFFFF" d="M49.9,341.9l-33.8,33.8C5.7,386.1,0,399.9,0,414.6c0,14.7,5.7,28.5,16.1,38.9l42.4,42.4
	C68.9,506.3,82.7,512,97.4,512c14.7,0,28.5-5.7,38.9-16.1l33.8-33.8L49.9,341.9z"/>
<path fill="#FFFFFF" d="M507.6,174.1L337.9,4.4c-2.8-2.8-6.6-4.4-10.6-4.4s-7.8,1.6-10.6,4.4l-31.8,31.8l190.9,190.9l31.8-31.8"/>
<path fill="#FFFFFF" d="M200,191.8L71.1,320.6l120.2,120.2L320.2,312L200,191.8z M175.3,357.9c-5.9,5.9-15.4,5.9-21.2,0
	s-5.9-15.4,0-21.2s15.4-5.9,21.2,0S181.1,352.1,175.3,357.9z M217.7,315.5c-2.9,2.9-6.8,4.4-10.6,4.4c-3.8,0-7.7-1.5-10.6-4.4
	c-5.9-5.9-5.9-15.4,0-21.2l21.2-21.2c5.9-5.9,15.4-5.9,21.2,0c5.9,5.9,5.9,15.4,0,21.2L217.7,315.5z"/>
</svg>
