<?xml version="1.0" encoding="utf-8"?>
<!-- Generator: Adobe Illustrator 23.0.2, SVG Export Plug-In . SVG Version: 6.00 Build 0)  -->
<svg version="1.1" id="Layer_5" xmlns="http://www.w3.org/2000/svg" xmlns:xlink="http://www.w3.org/1999/xlink" x="0px" y="0px"
	 viewBox="0 0 512 512" enable-background="new 0 0 512 512" xml:space="preserve">
<g>
	<path d="M125.6,344h-16.4l1.3,18.1L125.6,344z"/>
	<path d="M104.6,280l3.4,48h20.2c-5.1-6.7-8.2-15-8.2-24s3.1-17.3,8.2-24H104.6z"/>
	<path d="M74.1,416.2l-8.7,21.8l35,35l-4.2-27.3L74.1,416.2z"/>
	<path d="M136,304c0,13.2,10.8,24,24,24s24-10.8,24-24s-10.8-24-24-24S136,290.8,136,304z M168,304c0,4.4-3.6,8-8,8s-8-3.6-8-8
		s3.6-8,8-8S168,299.6,168,304z"/>
	<path d="M60.2,408H24v44l48.2,36h20.4l-46.1-46.1L60.2,408z"/>
	<path d="M328,304c0,13.2,10.8,24,24,24s24-10.8,24-24s-10.8-24-24-24S328,290.8,328,304z M360,304c0,4.4-3.6,8-8,8s-8-3.6-8-8
		s3.6-8,8-8S360,299.6,360,304z"/>
	<path d="M407.4,280h-23.6c5.1,6.7,8.2,15,8.2,24s-3.1,17.3-8.2,24H404L407.4,280z"/>
	<path d="M88,248h336v16H88V248z"/>
	<path d="M136,356.5l-31.5,37.9l14.4,93.6h9.1v-76.5l35.9-21.5L136,356.5z"/>
	<path d="M191.8,280c5.1,6.7,8.2,15,8.2,24s-3.1,17.3-8.2,24h32.4c-5.1-6.7-8.2-15-8.2-24s3.1-17.3,8.2-24H191.8z"/>
	<path d="M287.8,280c5.1,6.7,8.2,15,8.2,24s-3.1,17.3-8.2,24h32.4c-5.1-6.7-8.2-15-8.2-24s3.1-17.3,8.2-24H287.8z"/>
	<path d="M402.8,344h-16.4l15.1,18.1L402.8,344z"/>
	<path d="M358.9,488h9.1v-67.5l-21.5-12.9L358.9,488z"/>
	<path d="M256,280c-13.2,0-24,10.8-24,24s10.8,24,24,24s24-10.8,24-24S269.2,280,256,280z M256,312c-4.4,0-8-3.6-8-8s3.6-8,8-8
		c4.4,0,8,3.6,8,8S260.4,312,256,312z"/>
	<path d="M144,488h9.1l12.4-80.4L144,420.5V488z"/>
	<path d="M365.6,344H312v144h30.7l-15.1-98.4L365.6,344z"/>
	<path d="M465.4,441.9L419.3,488h20.4l48.2-36v-44h-36.2L465.4,441.9z"/>
	<path d="M348.1,389.9l35.9,21.5V488h9.1l14.4-93.6L376,356.5L348.1,389.9z"/>
	<path d="M437.9,416.2l-22,29.5l-4.2,27.3l35-35L437.9,416.2z"/>
	<path d="M280,344h16v144h-16V344z"/>
	<path d="M216,344h16v144h-16V344z"/>
	<path d="M184.5,389.6L169.3,488H200V344h-53.6L184.5,389.6z"/>
	<path d="M248,344h16v144h-16V344z"/>
	<path d="M488,112c0-8.8-7.2-16-16-16h-8V40c0-8.8-7.2-16-16-16s-16,7.2-16,16v16h-32c0-8.8-7.2-16-16-16s-16,7.2-16,16v40H200v32
		h272C480.8,128,488,120.8,488,112z"/>
	<path d="M64,200h48c22.1,0,40-17.9,40-40v-16h32V80h-32V64c0-22.1-17.9-40-40-40H64c-22.1,0-40,17.9-40,40v96
		C24,182.1,41.9,200,64,200z M88,88c13.2,0,24,10.8,24,24s-10.8,24-24,24s-24-10.8-24-24S74.8,88,88,88z"/>
</g>
</svg>
